<svg width="24" height="24" viewBox="0 0 24 24" fill="none" xmlns="http://www.w3.org/2000/svg">
<path d="M17.5535 7.00498C16.5178 6.53549 15.4104 6.19427 14.2526 6C14.1104 6.24907 13.9443 6.58406 13.8298 6.85056C12.599 6.67123 11.3795 6.67123 10.1714 6.85056C10.0569 6.58406 9.88701 6.24907 9.74358 6C8.58453 6.19427 7.47583 6.53674 6.44013 7.00747C4.3511 10.066 3.78479 13.0486 4.06794 15.9888C5.4535 16.9913 6.79627 17.6002 8.11638 17.9987C8.44232 17.5641 8.73303 17.1021 8.98346 16.6152C8.50651 16.4396 8.04969 16.2229 7.61804 15.9713C7.73256 15.8892 7.84456 15.8032 7.95279 15.7148C10.5855 16.9078 13.4459 16.9078 16.0472 15.7148C16.1566 15.8032 16.2686 15.8892 16.3819 15.9713C15.949 16.2241 15.4909 16.4408 15.014 16.6164C15.2644 17.1021 15.5538 17.5654 15.881 18C17.2024 17.6015 18.5464 16.9925 19.932 15.9888C20.2642 12.5803 19.3644 9.62516 17.5535 7.00498ZM9.34212 14.1806C8.55181 14.1806 7.90371 13.4657 7.90371 12.5953C7.90371 11.7248 8.53797 11.0087 9.34212 11.0087C10.1463 11.0087 10.7944 11.7235 10.7805 12.5953C10.7818 13.4657 10.1463 14.1806 9.34212 14.1806ZM14.6578 14.1806C13.8675 14.1806 13.2194 13.4657 13.2194 12.5953C13.2194 11.7248 13.8537 11.0087 14.6578 11.0087C15.462 11.0087 16.1101 11.7235 16.0962 12.5953C16.0962 13.4657 15.462 14.1806 14.6578 14.1806Z" fill="black"/>
</svg>
