<?xml version="1.0" encoding="UTF-8"?>
<svg width="256px" height="256px" viewBox="0 0 256 256" version="1.1" xmlns="http://www.w3.org/2000/svg" xmlns:xlink="http://www.w3.org/1999/xlink">
    <title>编组备份 2</title>
    <g id="页面-1" stroke="none" stroke-width="1" fill="none" fill-rule="evenodd">
        <g id="生态全景" transform="translate(-271.000000, -58.000000)" fill-rule="nonzero">
            <g id="编组备份-2" transform="translate(271.000000, 58.000000)">
                <path d="M128,0 C57.6,0 0,57.6 0,128 C0,198.4 57.6,256 128,256 C198.4,256 256,198.4 256,128 C256,57.6 198.4,0 128,0 Z" id="路径" fill="#F0B90B"></path>
                <path d="M80,63.3552694 L128.004399,40 L176,63.3552694 L158.403079,72 L128.004399,57.2513114 L97.6497113,72 L80,63.3552694 Z M176,98.5457716 L158.403079,88 L128.004399,105.985469 L97.6497113,88 L80,98.5457716 L80,119.562918 L110.310696,137.548387 L110.310696,173.454228 L127.995601,184 L145.645312,173.454228 L145.645312,137.557687 L176,119.572217 L176,98.5457716 Z M176,157.37419 L176,136 L160,146.682381 L160,168 L176,157.37419 Z M190.351906,163.486778 L160,180.263358 L160,200 L208,173.298509 L208,120 L190.351906,129.820437 L190.351906,163.486778 Z M176,82.0110448 L191.9601,92.0309256 L191.9601,112 L208,102.04197 L208,82.0110448 L192,72 L176,82.0640601 L176,82.0110448 Z M112,184 L112,205.308191 L128.027882,216 L144,205.317619 L144,184.037714 L128.027882,194.691809 L112.047797,184 L112,184 Z M80,157.317619 L96,168 L96,146.691809 L80,136 L80,157.37419 L80,157.317619 Z M112,79.9964711 L128.015936,88 L144,79.9964711 L128.015936,72 L112.031873,80.0388178 L112,79.9964711 Z M64,92 L80,81.9955889 L64.0478564,72 L48,82.0485223 L48,102.048522 L63.9920239,112 L64,92 Z M65.6513291,129.820437 L48,120 L48,173.298509 L96,200 L96,180.219828 L65.7041247,163.434541 L65.7041247,129.768201 L65.6513291,129.820437 Z" id="形状" fill="#FFFFFF"></path>
            </g>
        </g>
    </g>
</svg>