<?xml version="1.0" encoding="UTF-8"?>
<svg width="256px" height="256px" viewBox="0 0 256 256" version="1.1" xmlns="http://www.w3.org/2000/svg" xmlns:xlink="http://www.w3.org/1999/xlink">
    <title>编组</title>
    <g id="页面-1" stroke="none" stroke-width="1" fill="none" fill-rule="evenodd">
        <g id="生态全景" transform="translate(-277.000000, -44.000000)" fill-rule="nonzero">
            <g id="编组" transform="translate(277.000000, 44.000000)">
                <path d="M128,0 C57.3076,0 0,57.3076 0,128 C0,198.6924 57.3076,256 128,256 C198.6924,256 256,198.6924 256,128 C256,57.3076 198.6924,0 128,0 Z" id="路径" fill="#526ACC"></path>
                <path d="M128,35.968 L72,128 L128,162.4 L128,35.968 Z M72,137.1428 L128,220 L128,172 L72,137.1428 Z" id="形状" fill="#FFFFFF"></path>
                <path d="M72,128 L128,162.4 L184,128 L128,35.968 L128,93.6 L72,128 Z M128,220 L184,137.1428 L128,172 L128,220 Z" id="形状" fill="#CCDAFF" opacity="0.92"></path>
                <polygon id="路径" fill="#8DA6EB" points="128 93.6 128 162.4 184 128 128 93.6"></polygon>
            </g>
        </g>
    </g>
</svg>