<svg width="24" height="24" viewBox="0 0 24 24" fill="none" xmlns="http://www.w3.org/2000/svg">
<path d="M10.1661 12C9.70761 12 9.33334 12.3743 9.33334 12.8327C9.33334 13.2912 9.70761 13.6655 10.1661 13.6655C10.6246 13.6655 10.9988 13.2912 10.9988 12.8327C10.9988 12.3743 10.6246 12 10.1661 12Z" fill="black"/>
<path d="M12.0094 15.6398C12.3275 15.6398 13.4129 15.6023 13.9836 15.0316C14.0678 14.9474 14.0678 14.8164 14.0023 14.7228C13.9181 14.6386 13.7778 14.6386 13.6936 14.7228C13.3287 15.0783 12.5708 15.2093 12.0187 15.2093C11.4667 15.2093 10.6994 15.0783 10.3439 14.7228C10.2597 14.6386 10.1193 14.6386 10.0351 14.7228C9.95088 14.807 9.95088 14.9474 10.0351 15.0316C10.5965 15.593 11.6912 15.6398 12.0094 15.6398Z" fill="black"/>
<path d="M13.0012 12.8327C13.0012 13.2912 13.3754 13.6655 13.8339 13.6655C14.2924 13.6655 14.6667 13.2912 14.6667 12.8327C14.6667 12.3743 14.2924 12 13.8339 12C13.3754 12 13.0012 12.3743 13.0012 12.8327Z" fill="black"/>
<path fill-rule="evenodd" clip-rule="evenodd" d="M20 12C20 16.4183 16.4183 20 12 20C7.58172 20 4 16.4183 4 12C4 7.58172 7.58172 4 12 4C16.4183 4 20 7.58172 20 12ZM16.1637 10.8304C16.8094 10.8304 17.3333 11.3544 17.3333 12C17.3333 12.4772 17.0433 12.8889 16.6597 13.076C16.6784 13.1883 16.6877 13.3006 16.6877 13.4222C16.6877 15.2187 14.6012 16.669 12.0187 16.669C9.43626 16.669 7.34971 15.2187 7.34971 13.4222C7.34971 13.3006 7.35907 13.1789 7.37778 13.0667C6.96609 12.8795 6.68538 12.4772 6.68538 12C6.68538 11.3544 7.20936 10.8304 7.85497 10.8304C8.16375 10.8304 8.45381 10.9614 8.65965 11.1579C9.46433 10.5684 10.5778 10.2035 11.8222 10.1661L12.4117 7.37776C12.4304 7.32162 12.4585 7.27484 12.5053 7.24677C12.5521 7.2187 12.6082 7.20934 12.6643 7.2187L14.6012 7.63039C14.7322 7.34969 15.0129 7.16256 15.3404 7.16256C15.7988 7.16256 16.1731 7.53683 16.1731 7.99531C16.1731 8.45379 15.7988 8.82805 15.3404 8.82805C14.8912 8.82805 14.5263 8.4725 14.5076 8.03273L12.7766 7.66782L12.2433 10.1661C13.4597 10.2129 14.5637 10.5871 15.3591 11.1579C15.5649 10.952 15.8456 10.8304 16.1637 10.8304Z" fill="black"/>
</svg>
