<svg width="24" height="24" viewBox="0 0 24 24" fill="none" xmlns="http://www.w3.org/2000/svg">
<path d="M19.8406 8.79971C19.8406 8.79971 19.6844 7.69658 19.2031 7.21221C18.5938 6.57471 17.9125 6.57158 17.6 6.53408C15.3625 6.37158 12.0031 6.37158 12.0031 6.37158H11.9969C11.9969 6.37158 8.6375 6.37158 6.4 6.53408C6.0875 6.57158 5.40625 6.57471 4.79688 7.21221C4.31563 7.69658 4.1625 8.79971 4.1625 8.79971C4.1625 8.79971 4 10.0966 4 11.3903V12.6028C4 13.8966 4.15937 15.1935 4.15937 15.1935C4.15937 15.1935 4.31562 16.2966 4.79375 16.781C5.40313 17.4185 6.20313 17.3966 6.55938 17.4653C7.84063 17.5872 12 17.6247 12 17.6247C12 17.6247 15.3625 17.6185 17.6 17.4591C17.9125 17.4216 18.5938 17.4185 19.2031 16.781C19.6844 16.2966 19.8406 15.1935 19.8406 15.1935C19.8406 15.1935 20 13.8997 20 12.6028V11.3903C20 10.0966 19.8406 8.79971 19.8406 8.79971ZM10.3469 14.0747V9.57783L14.6687 11.8341L10.3469 14.0747Z" fill="black"/>
</svg>
